<mxfile host="app.diagrams.net" modified="2024-03-21T07:53:50.928Z" agent="Mozilla/5.0 (Macintosh; Intel Mac OS X 10_15_7) AppleWebKit/605.1.15 (KHTML, like Gecko) Version/17.3.1 Safari/605.1.15" version="24.0.7" etag="jz2qGcH_fAH-l_pC9jsu" type="github">
  <diagram name="Page-1" id="NsaRhI4i6tx2_51C0ZJm">
    <mxGraphModel>
      <root>
        <mxCell id="0" />
        <mxCell id="1" parent="0" />
      </root>
    </mxGraphModel>
  </diagram>
</mxfile>
